<?xml version="1.0" encoding="UTF-8"?><svg id="Capa_2" xmlns="http://www.w3.org/2000/svg" viewBox="0 0 767 137.42"><defs><style>.cls-1{fill:#f9dc0a;}</style></defs><g id="Capa_1-2"><path class="cls-1" d="m428.87,97.24c-3.26-1.89-6.85-2.83-10.8-2.83s-7.54.94-10.8,2.83c-3.26,1.89-5.82,4.47-7.68,7.76-1.86,3.28-2.79,6.92-2.79,10.92s.93,7.64,2.79,10.92c1.86,3.28,4.42,5.87,7.68,7.76,3.26,1.89,6.85,2.83,10.8,2.83s7.54-.94,10.8-2.83c3.26-1.89,5.81-4.47,7.68-7.76,1.86-3.28,2.79-6.92,2.79-10.92s-.93-7.64-2.79-10.92c-1.86-3.28-4.42-5.87-7.68-7.76Zm1.23,26.39c-1.18,2.3-2.82,4.09-4.92,5.38-2.11,1.29-4.48,1.93-7.1,1.93s-4.99-.64-7.1-1.93c-2.11-1.29-3.75-3.08-4.93-5.38-1.18-2.3-1.77-4.87-1.77-7.72s.59-5.42,1.77-7.72c1.18-2.3,2.82-4.11,4.93-5.42,2.11-1.31,4.48-1.97,7.1-1.97s4.99.66,7.1,1.97c2.11,1.31,3.75,3.12,4.92,5.42,1.18,2.3,1.77,4.87,1.77,7.72s-.59,5.42-1.77,7.72Z"/><path class="cls-1" d="m401.09,61.66c3.15,1.86,6.72,2.79,10.71,2.79,5.14,0,9.41-1.31,12.81-3.94,3.39-2.63,5.36-6.29,5.91-11l-6.98-1.4c-.55,3.17-1.86,5.61-3.94,7.31-2.08,1.7-4.68,2.54-7.8,2.54-4,0-7.22-1.38-9.69-4.15-2.46-2.76-3.69-6.39-3.69-10.88s1.23-8.13,3.69-10.92c2.46-2.79,5.69-4.19,9.69-4.19,3.34,0,6.08.98,8.21,2.96,2.13,1.97,3.39,4.82,3.78,8.54l7.22-.9c-.38-5.26-2.34-9.4-5.87-12.44-3.53-3.04-7.98-4.56-13.34-4.56-4,0-7.57.93-10.71,2.79-3.15,1.86-5.62,4.42-7.43,7.68-1.81,3.26-2.71,6.94-2.71,11.04s.9,7.79,2.71,11.04c1.81,3.26,4.28,5.82,7.43,7.68Z"/><path class="cls-1" d="m375.16,94.82c-3.56,0-6.58.84-9.07,2.51-2.49,1.67-4.26,4.04-5.3,7.1-.98-3.07-2.66-5.43-5.01-7.1-2.35-1.67-5.28-2.51-8.78-2.51-3.28,0-6.08.78-8.37,2.34-2.3,1.56-4,3.79-5.09,6.69v-8.13h-7.23v40.39h7.39v-20.52c0-4.82.93-8.46,2.79-10.92,1.86-2.46,4.62-3.69,8.29-3.69,6.46,0,9.69,3.89,9.69,11.66v23.48h7.39v-20.77c0-4.71.9-8.28,2.71-10.71,1.81-2.43,4.49-3.65,8.05-3.65,6.29,0,9.44,3.67,9.44,11v24.14h7.39v-25.2c0-5.2-1.23-9.18-3.69-11.95s-5.99-4.15-10.59-4.15Z"/><path class="cls-1" d="m452.92,63.38l.9-6.08c-.82.16-1.59.25-2.3.25-2.08,0-3.75-.58-5.01-1.72-1.26-1.15-1.89-2.74-1.89-4.76,0-1.48.25-3.23.74-5.25l10.34-41.62-6.98-1.64-10.34,41.62c-.77,3.07-1.15,5.69-1.15,7.88,0,3.45,1.16,6.25,3.49,8.42,2.33,2.16,5.32,3.24,8.99,3.24,1.09,0,2.16-.11,3.2-.33Z"/><path class="cls-1" d="m355.46,42.61c0-4.82.93-8.46,2.79-10.92,1.86-2.46,4.62-3.69,8.29-3.69,6.46,0,9.69,3.89,9.69,11.66v23.48h7.39v-24.47c0-5.31-1.3-9.44-3.9-12.4-2.6-2.96-6.25-4.43-10.96-4.43-3.28,0-6.08.78-8.37,2.34-2.3,1.56-4,3.79-5.09,6.69v-8.13h-7.23v40.39h7.39v-20.52Z"/><polygon class="cls-1" points="561.49 23.64 554.59 21.43 540.88 61.9 547.78 64.12 561.49 23.64"/><path class="cls-1" d="m553.77,15.02c1.59,0,2.93-.55,4.02-1.64,1.09-1.09,1.64-2.43,1.64-4.02s-.55-2.93-1.64-4.02c-1.1-1.09-2.44-1.64-4.02-1.64s-2.85.55-3.94,1.64c-1.09,1.09-1.64,2.44-1.64,4.02s.55,2.93,1.64,4.02c1.09,1.1,2.41,1.64,3.94,1.64Z"/><polygon class="cls-1" points="599.95 5.42 596.34 0 579.51 11.99 582.79 17.08 599.95 5.42"/><path class="cls-1" d="m474.84,64.04c3.12,0,5.83-.64,8.13-1.93,2.3-1.28,4.08-3.13,5.34-5.54v6.57h7.22V22.74h-7.39v20.77c0,4.71-.9,8.28-2.71,10.71-1.81,2.44-4.49,3.65-8.05,3.65-6.24,0-9.36-3.67-9.36-11v-24.14h-7.39v25.2c0,5.2,1.22,9.18,3.65,11.95,2.43,2.76,5.95,4.15,10.55,4.15Z"/><polygon class="cls-1" points="473.48 95.72 461.5 128.97 449.27 95.72 441.22 95.72 456.98 136.11 465.85 136.11 481.37 95.72 473.48 95.72"/><rect class="cls-1" x="328.44" y="7.31" width="7.72" height="55.83"/><path class="cls-1" d="m489.54,78.31c-1.1,1.1-1.64,2.44-1.64,4.02s.55,2.93,1.64,4.02c1.09,1.1,2.41,1.64,3.94,1.64s2.93-.55,4.02-1.64c1.09-1.09,1.64-2.43,1.64-4.02s-.55-2.93-1.64-4.02c-1.1-1.09-2.44-1.64-4.02-1.64s-2.85.55-3.94,1.64Z"/><path class="cls-1" d="m597.04,61.62c3.26-1.89,5.81-4.47,7.68-7.76,1.86-3.28,2.79-6.92,2.79-10.92s-.93-7.64-2.79-10.92c-1.86-3.28-4.42-5.87-7.68-7.76-3.26-1.89-6.85-2.83-10.8-2.83s-7.54.94-10.8,2.83c-3.26,1.89-5.82,4.47-7.68,7.76-1.86,3.28-2.79,6.92-2.79,10.92s.93,7.64,2.79,10.92c1.86,3.28,4.42,5.87,7.68,7.76,3.26,1.89,6.86,2.83,10.8,2.83s7.54-.94,10.8-2.83Zm-22.82-10.96c-1.18-2.3-1.77-4.87-1.77-7.72s.59-5.42,1.77-7.72c1.18-2.3,2.82-4.1,4.93-5.42,2.11-1.31,4.47-1.97,7.1-1.97s4.99.66,7.1,1.97c2.11,1.31,3.75,3.12,4.93,5.42,1.18,2.3,1.77,4.87,1.77,7.72s-.59,5.42-1.77,7.72c-1.18,2.3-2.82,4.09-4.93,5.38-2.11,1.29-4.47,1.93-7.1,1.93s-4.99-.64-7.1-1.93c-2.11-1.28-3.75-3.08-4.93-5.38Z"/><path class="cls-1" d="m669.19,94.82c-3.28,0-6.08.78-8.37,2.34-2.3,1.56-4,3.79-5.09,6.69v-8.13h-7.22v40.39h7.39v-20.52c0-4.82.93-8.46,2.79-10.92,1.86-2.46,4.62-3.69,8.29-3.69,6.46,0,9.69,3.89,9.69,11.66v23.48h7.39v-24.46c0-5.31-1.3-9.44-3.9-12.4-2.6-2.96-6.25-4.43-10.96-4.43Z"/><path class="cls-1" d="m709.16,60.96c3.34-2.33,5.36-5.35,6.08-9.07l-6.4-1.64c-.6,2.57-1.96,4.6-4.06,6.07-2.11,1.48-4.64,2.22-7.59,2.22-3.78,0-6.85-1.24-9.24-3.74-2.38-2.49-3.68-5.76-3.9-9.81h32.02c.22-1.04.33-2.19.33-3.45,0-3.83-.84-7.28-2.51-10.34-1.67-3.07-3.98-5.46-6.94-7.18-2.96-1.72-6.3-2.59-10.02-2.59s-7.38.92-10.47,2.75c-3.09,1.84-5.51,4.39-7.27,7.68-1.75,3.28-2.63,6.98-2.63,11.08s.86,7.95,2.59,11.21c1.72,3.26,4.15,5.79,7.27,7.59,3.12,1.81,6.7,2.71,10.76,2.71,4.65,0,8.65-1.16,11.99-3.49Zm-20.98-30.25c2.27-2.24,5.13-3.37,8.58-3.37,3.67,0,6.61,1.14,8.82,3.41,2.22,2.27,3.33,5.27,3.33,8.99h-24.79c.44-3.78,1.79-6.79,4.06-9.03Z"/><path class="cls-1" d="m651.28,63.13v-24.47c0-5.31-1.3-9.44-3.9-12.4-2.6-2.96-6.25-4.43-10.96-4.43-3.28,0-6.08.78-8.37,2.34-2.3,1.56-4,3.79-5.09,6.69v-8.13h-7.22v40.39h7.39v-20.52c0-4.82.93-8.46,2.79-10.92,1.86-2.46,4.62-3.69,8.29-3.69,6.46,0,9.69,3.89,9.69,11.66v23.48h7.39Z"/><path class="cls-1" d="m631.2,96.99c-2.96-1.72-6.29-2.59-10.02-2.59s-7.38.92-10.47,2.75c-3.09,1.84-5.51,4.39-7.27,7.68-1.75,3.28-2.63,6.98-2.63,11.08s.86,7.95,2.59,11.21c1.72,3.26,4.15,5.79,7.27,7.59,3.12,1.81,6.7,2.71,10.76,2.71,4.65,0,8.65-1.16,11.99-3.49,3.34-2.33,5.36-5.35,6.08-9.07l-6.4-1.64c-.6,2.57-1.96,4.6-4.06,6.08-2.11,1.48-4.64,2.22-7.59,2.22-3.78,0-6.85-1.24-9.24-3.74-2.38-2.49-3.68-5.76-3.9-9.81h32.02c.22-1.04.33-2.19.33-3.45,0-3.83-.83-7.28-2.5-10.34-1.67-3.07-3.98-5.46-6.94-7.18Zm-22.82,15.72c.44-3.78,1.79-6.79,4.06-9.03,2.27-2.24,5.13-3.37,8.58-3.37,3.67,0,6.61,1.14,8.83,3.41,2.22,2.27,3.32,5.27,3.32,8.99h-24.79Z"/><path class="cls-1" d="m764.21,105c-1.86-3.28-4.42-5.87-7.68-7.76-3.26-1.89-6.86-2.83-10.8-2.83s-7.54.94-10.8,2.83c-3.26,1.89-5.82,4.47-7.68,7.76-1.86,3.28-2.79,6.92-2.79,10.92s.93,7.64,2.79,10.92c1.86,3.28,4.42,5.87,7.68,7.76,3.26,1.89,6.86,2.83,10.8,2.83s7.54-.94,10.8-2.83c3.26-1.89,5.81-4.47,7.68-7.76,1.86-3.28,2.79-6.92,2.79-10.92s-.93-7.64-2.79-10.92Zm-6.45,18.64c-1.18,2.3-2.82,4.09-4.93,5.38-2.11,1.29-4.47,1.93-7.1,1.93s-4.99-.64-7.1-1.93c-2.11-1.29-3.75-3.08-4.93-5.38-1.18-2.3-1.77-4.87-1.77-7.72s.59-5.42,1.77-7.72c1.18-2.3,2.82-4.11,4.93-5.42,2.11-1.31,4.47-1.97,7.1-1.97s4.99.66,7.1,1.97c2.11,1.31,3.75,3.12,4.93,5.42,1.18,2.3,1.77,4.87,1.77,7.72s-.59,5.42-1.77,7.72Z"/><path class="cls-1" d="m731.65,42.61c0-4.82.93-8.46,2.79-10.92,1.86-2.46,4.62-3.69,8.29-3.69,6.46,0,9.69,3.89,9.69,11.66v23.48h7.39v-24.47c0-5.31-1.3-9.44-3.9-12.4-2.6-2.96-6.25-4.43-10.96-4.43-3.28,0-6.08.78-8.37,2.34-2.3,1.56-4,3.79-5.09,6.69v-8.13h-7.22v40.39h7.39v-20.52Z"/><path class="cls-1" d="m713.35,87.02l-6.4-2.55-4.43,11.25h-10.34v6.24h7.88l-3.94,10.1c-1.81,4.82-2.71,8.68-2.71,11.58,0,4,1.27,7.21,3.82,9.65,2.55,2.44,5.92,3.65,10.14,3.65,1.37,0,2.78-.15,4.23-.45,1.45-.3,2.75-.72,3.9-1.27l-.82-5.75c-2.03.71-4.1,1.07-6.24,1.07-2.35,0-4.21-.7-5.58-2.09-1.37-1.4-2.05-3.27-2.05-5.62s.6-5.2,1.81-8.21l4.93-12.64h13.46v-6.24h-11l3.37-8.7Z"/><polygon class="cls-1" points="480.59 134.88 487.48 137.1 501.19 96.62 494.3 94.4 480.59 134.88"/><path class="cls-1" d="m556.5,94.82c-3.56,0-6.58.84-9.07,2.51-2.49,1.67-4.26,4.04-5.29,7.1-.98-3.07-2.66-5.43-5.01-7.1-2.35-1.67-5.28-2.51-8.79-2.51-3.28,0-6.07.78-8.37,2.34-2.3,1.56-4,3.79-5.09,6.69v-8.13h-7.22v40.39h7.39v-20.52c0-4.82.93-8.46,2.79-10.92,1.86-2.46,4.62-3.69,8.29-3.69,6.46,0,9.69,3.89,9.69,11.66v23.48h7.39v-20.77c0-4.71.9-8.28,2.71-10.71,1.81-2.43,4.49-3.65,8.05-3.65,6.29,0,9.44,3.67,9.44,11v24.14h7.39v-25.2c0-5.2-1.23-9.18-3.69-11.95s-5.99-4.15-10.59-4.15Z"/><path class="cls-1" d="m586,78.31c-1.09,1.1-1.64,2.44-1.64,4.02s.55,2.93,1.64,4.02c1.09,1.1,2.41,1.64,3.94,1.64s2.93-.55,4.02-1.64c1.09-1.09,1.64-2.43,1.64-4.02s-.55-2.93-1.64-4.02c-1.1-1.09-2.44-1.64-4.02-1.64s-2.85.55-3.94,1.64Z"/><path class="cls-1" d="m520.18,64.45c4.71,0,8.48-1.12,11.33-3.37,2.84-2.24,4.27-5.2,4.27-8.87,0-6.46-4.27-10.4-12.81-11.82l-4.68-.9c-2.3-.38-3.97-1.07-5.01-2.05-1.04-.98-1.56-2.32-1.56-4.02,0-1.92.77-3.48,2.3-4.68,1.53-1.2,3.56-1.81,6.07-1.81,3.01,0,5.4.82,7.18,2.46,1.78,1.64,2.78,3.97,3,6.98l6.73-.49c-.16-4.49-1.78-8.02-4.84-10.59-3.07-2.57-7.09-3.86-12.07-3.86-3.01,0-5.71.55-8.09,1.64-2.38,1.1-4.23,2.6-5.54,4.52-1.31,1.92-1.97,4.08-1.97,6.48,0,6.51,4.16,10.51,12.48,11.99l4.6.82c2.41.44,4.16,1.15,5.25,2.13,1.09.99,1.64,2.27,1.64,3.86,0,1.86-.74,3.34-2.22,4.43-1.48,1.1-3.5,1.64-6.07,1.64-2.96,0-5.31-.79-7.06-2.38-1.75-1.59-2.74-3.86-2.96-6.82l-6.65.49c.16,4.32,1.74,7.77,4.72,10.34,2.98,2.57,6.96,3.86,11.95,3.86Z"/><polygon class="cls-1" points="577.05 134.88 583.95 137.1 597.66 96.62 590.76 94.4 577.05 134.88"/><polygon class="cls-1" points="244.64 6.27 206.8 6.27 173.18 69.78 170.26 136.11 208.09 136.11 204.39 69.71 244.64 6.27"/><polygon class="cls-1" points="41.92 104.76 47.67 85.66 60.47 85.66 68.81 59.32 55.83 59.32 60.84 43.37 82.54 43.37 93.85 6.27 39.51 6.27 0 136.11 54.16 136.11 63.81 104.76 41.92 104.76"/><polygon class="cls-1" points="155.23 6.27 130.93 93.64 139.47 6.27 101.07 6.27 61.56 136.11 95.14 136.11 117.58 51.16 110.72 136.11 149.11 136.11 188.43 6.27 155.23 6.27"/><polygon class="cls-1" points="212.68 136.11 246.81 136.11 286.14 6.27 252.01 6.27 212.68 136.11"/></g></svg>